# xmcd
#
# Track frame offsets:
#	150
#	15492
#	34640
#	54677
#	74300
#	91580
#	110990
#	135630
#	155755
#	173047
#	193170
#	213205
#	227962
#	255895
#	268255
#	284517
#	307255
#
# Disc length: 4173 seconds
#
# Revision: 1
# Processed by: cddbd v1.5.2PL0 Copyright (c) Steve Scherf et al.
# Submitted via: audiograbber 1.83.01
#
DISCID=f9104b11
DTITLE=Various Artist - CDX Dance Trax July 1993
DYEAR=1993
DGENRE=Country
TTITLE0=Twister Alley - Dance
TTITLE1=Robert Ellis Orrall - Boom! It Was Over (Dance Mix)
TTITLE2=Ricky Lynn Greg - Can You Feel It (Dance Mix)
TTITLE3=Twister Alley  - Dance (Dance Mix)
TTITLE4=Tracy Byrd - Holdin' Heaven (Dance Mix)
TTITLE5=Ricky Lynn Gregg - If I Had A Cheatin' Heart (Dance Mix)
TTITLE6=Dwight Yoakam - Fast As You (Dance Mix)
TTITLE7=Shelby Lynne - Feelin' Kinda (Dance Mix)
TTITLE8=Little Texas - God Blessed Texas (Dance Mix)
TTITLE9=Gibson - Miller Band - Texas Tattoo (Dance Mix)
TTITLE10=Confederate Railroad - Trashy Women (Dance Mix)
TTITLE11=Travis Tritt - T-R-O-U-B-L-E (Dance Mix)
TTITLE12=Confederate Railroad - Queen Of Memphis (Dance Mix)
TTITLE13=Tammy Wynette - Stand By Your Man (Dance Mix)
TTITLE14=George Strait - Baby Blue (Dance Mix)
TTITLE15=Patty Loveless - Nothin' But The Wheel (Dance Mix)
TTITLE16=RCA - Promo
EXTD=
EXTT0=
EXTT1=
EXTT2=
EXTT3=
EXTT4=
EXTT5=
EXTT6=
EXTT7=
EXTT8=
EXTT9=
EXTT10=
EXTT11=
EXTT12=
EXTT13=
EXTT14=
EXTT15=
EXTT16=
PLAYORDER=
